# xmcd
#
# Track frame offsets: 
#        150
#        10895
#        23392
#        36255
#        48052
#        59587
#        72360
#        84575
#        96827
#        111447
#
# Disc length: 1652 seconds
#
# Revision: 0
# Processed by: cddbd v1.4PL0 Copyright (c) Steve Scherf et al.
# Submitted via: ExactAudioCopy v0.90b4
#
DISCID=7b06720a
DTITLE=Jimmy Reed - All Night Boogie
DYEAR=1996
DGENRE=Blues
TTITLE0=Oh John
TTITLE1=Honest I Do
TTITLE2=Go On To School
TTITLE3=Boogie In The Night
TTITLE4=I'm Nervous
TTITLE5=Caress Me Baby
TTITLE6=My Baby's So Sweet
TTITLE7=Little Rain
TTITLE8=I Was So Young
TTITLE9=Shame Shame Shame
EXTD=
EXTT0=
EXTT1=
EXTT2=
EXTT3=
EXTT4=
EXTT5=
EXTT6=
EXTT7=
EXTT8=
EXTT9=
PLAYORDER=
